<?xml version="1.0" standalone="no"?><svg xmlns="http://www.w3.org/2000/svg" viewBox="0 0 1440 320"><path fill="#ff5500" fill-opacity="1" d="M0,192L30,170.7C60,149,120,107,180,122.7C240,139,300,213,360,224C420,235,480,181,540,144C600,107,660,85,720,90.7C780,96,840,128,900,133.3C960,139,1020,117,1080,128C1140,139,1200,181,1260,165.3C1320,149,1380,75,1410,37.3L1440,0L1440,320L1410,320C1380,320,1320,320,1260,320C1200,320,1140,320,1080,320C1020,320,960,320,900,320C840,320,780,320,720,320C660,320,600,320,540,320C480,320,420,320,360,320C300,320,240,320,180,320C120,320,60,320,30,320L0,320Z"></path></svg>