<?xml version="1.0" standalone="no"?><svg xmlns="http://www.w3.org/2000/svg" viewBox="0 0 1440 320"><path fill="#ff5500" fill-opacity="1" d="M0,256L16,229.3C32,203,64,149,96,149.3C128,149,160,203,192,197.3C224,192,256,128,288,133.3C320,139,352,213,384,208C416,203,448,117,480,85.3C512,53,544,75,576,85.3C608,96,640,96,672,122.7C704,149,736,203,768,202.7C800,203,832,149,864,138.7C896,128,928,160,960,176C992,192,1024,192,1056,165.3C1088,139,1120,85,1152,74.7C1184,64,1216,96,1248,144C1280,192,1312,256,1344,240C1376,224,1408,128,1424,80L1440,32L1440,320L1424,320C1408,320,1376,320,1344,320C1312,320,1280,320,1248,320C1216,320,1184,320,1152,320C1120,320,1088,320,1056,320C1024,320,992,320,960,320C928,320,896,320,864,320C832,320,800,320,768,320C736,320,704,320,672,320C640,320,608,320,576,320C544,320,512,320,480,320C448,320,416,320,384,320C352,320,320,320,288,320C256,320,224,320,192,320C160,320,128,320,96,320C64,320,32,320,16,320L0,320Z"></path></svg>